<svg width="38" height="38" viewBox="0 0 38 38" fill="none" xmlns="http://www.w3.org/2000/svg">
<rect width="38" height="38" rx="5" fill="#D0D1FF"/>
<path d="M18 22.414V27H20V22.414C20 21.888 19.786 21.372 19.414 21L17.414 19L20 16.414L22 18.414C22.372 18.786 22.888 19 23.414 19H27V17H23.414L19.707 13.293C19.316 12.902 18.684 12.902 18.293 13.293L15 16.586C14.622 16.964 14.414 17.466 14.414 18C14.414 18.534 14.622 19.036 15 19.414L18 22.414Z" fill="#686CFF"/>
<path d="M23 14C24.1046 14 25 13.1046 25 12C25 10.8954 24.1046 10 23 10C21.8954 10 21 10.8954 21 12C21 13.1046 21.8954 14 23 14Z" fill="#686CFF"/>
<path d="M25 21C22.794 21 21 22.794 21 25C21 27.206 22.794 29 25 29C27.206 29 29 27.206 29 25C29 22.794 27.206 21 25 21ZM25 27C23.897 27 23 26.103 23 25C23 23.897 23.897 23 25 23C26.103 23 27 23.897 27 25C27 26.103 26.103 27 25 27ZM13 29C15.206 29 17 27.206 17 25C17 22.794 15.206 21 13 21C10.794 21 9 22.794 9 25C9 27.206 10.794 29 13 29ZM13 23C14.103 23 15 23.897 15 25C15 26.103 14.103 27 13 27C11.897 27 11 26.103 11 25C11 23.897 11.897 23 13 23Z" fill="#686CFF"/>
</svg>
