<svg width="38" height="38" viewBox="0 0 38 38" fill="none" xmlns="http://www.w3.org/2000/svg">
<rect width="38" height="38" rx="5" fill="#D8DEE3"/>
<path d="M28.004 14.975V13C28.004 10.794 26.21 9 24.004 9H14.004C11.798 9 10.004 10.794 10.004 13V14.998C9.961 15 9.928 15.002 9.928 15.002C9.404 15.04 9 15.475 9 16V18C9 18.552 9.447 19 10 19H10.004V25C10.004 25.735 10.407 26.372 11 26.72V28C11 28.553 11.447 29 12 29H13C13.553 29 14 28.553 14 28V27H24V28C24 28.553 24.447 29 25 29H26C26.553 29 27 28.553 27 28V26.724C27.597 26.377 28.004 25.739 28.004 25V19C28.557 19 29.004 18.552 29.004 18V16.062C29.015 15.909 28.992 15.753 28.932 15.607C28.729 15.12 28.297 15.003 28.004 14.975ZM26.006 25H26H25H13H12.004V20H18.004H20.004H26.005L26.006 25ZM18.004 14V18H12.004V14H18.004ZM26.004 14V15.998C26.004 15.999 26.004 15.999 26.004 16V18H20.004V14H26.004ZM14.004 11H24.004C24.74 11 25.379 11.405 25.726 12H12.282C12.629 11.405 13.268 11 14.004 11Z" fill="#8293A5"/>
<path d="M14.5 24C15.3284 24 16 23.3284 16 22.5C16 21.6716 15.3284 21 14.5 21C13.6716 21 13 21.6716 13 22.5C13 23.3284 13.6716 24 14.5 24Z" fill="#8293A5"/>
<path d="M23.5 24C24.3284 24 25 23.3284 25 22.5C25 21.6716 24.3284 21 23.5 21C22.6716 21 22 21.6716 22 22.5C22 23.3284 22.6716 24 23.5 24Z" fill="#8293A5"/>
</svg>
