<svg width="38" height="38" viewBox="0 0 38 38" fill="none" xmlns="http://www.w3.org/2000/svg">
<rect width="38" height="38" rx="5" fill="#C0F5B0"/>
<path d="M27.772 17.156L26.404 13.051C25.995 11.824 24.852 11 23.559 11H14.441C13.148 11 12.005 11.824 11.596 13.051L10.228 17.156C9.508 17.459 9 18.171 9 19V24C9 24.753 9.423 25.402 10.039 25.743C10.026 25.809 10 25.869 10 25.938V28C10 28.553 10.447 29 11 29H12C12.553 29 13 28.553 13 28V26H25V28C25 28.553 25.447 29 26 29H27C27.553 29 28 28.553 28 28V25.938C28 25.869 27.974 25.808 27.961 25.743C28.577 25.402 29 24.753 29 24V19C29 18.171 28.492 17.459 27.772 17.156ZM11 24V19H27L27.002 24H11ZM14.441 13H23.558C23.989 13 24.371 13.274 24.507 13.684L25.613 17H12.387L13.492 13.684C13.629 13.274 14.011 13 14.441 13Z" fill="#35E000"/>
<path d="M13.5 23C14.3284 23 15 22.3284 15 21.5C15 20.6716 14.3284 20 13.5 20C12.6716 20 12 20.6716 12 21.5C12 22.3284 12.6716 23 13.5 23Z" fill="#35E000"/>
<path d="M24.5 23C25.3284 23 26 22.3284 26 21.5C26 20.6716 25.3284 20 24.5 20C23.6716 20 23 20.6716 23 21.5C23 22.3284 23.6716 23 24.5 23Z" fill="#35E000"/>
</svg>
