<svg width="51" height="51" viewBox="0 0 51 51" fill="none" xmlns="http://www.w3.org/2000/svg">
<path d="M25.5 4.25C13.9804 4.25 4.25 13.9804 4.25 25.5C4.25 32.2766 7.633 38.4157 12.75 42.3385V42.5H12.9668C16.5113 45.1456 20.8526 46.75 25.5 46.75C30.1474 46.75 34.4888 45.1456 38.0333 42.5H38.25V42.3385C43.367 38.4157 46.75 32.2787 46.75 25.5C46.75 13.9804 37.0196 4.25 25.5 4.25ZM17.1573 40.2199C17.7884 37.3618 20.332 35.2176 23.375 35.2176H27.625C30.668 35.2176 33.2116 37.3639 33.8427 40.2199C31.3608 41.6585 28.509 42.5 25.5 42.5C22.491 42.5 19.6393 41.6585 17.1573 40.2199ZM37.4212 37.4871C35.8126 33.6621 32.028 30.9676 27.625 30.9676H23.375C18.972 30.9676 15.1852 33.6643 13.5787 37.4871C10.4614 34.3868 8.5 30.124 8.5 25.5C8.5 16.2839 16.2839 8.5 25.5 8.5C34.7161 8.5 42.5 16.2839 42.5 25.5C42.5 30.124 40.5386 34.3868 37.4212 37.4871Z" fill="#686CFF"/>
<path d="M25.5 12.75C20.655 12.75 17 16.405 17 21.25C17 26.095 20.655 29.75 25.5 29.75C30.345 29.75 34 26.095 34 21.25C34 16.405 30.345 12.75 25.5 12.75ZM25.5 25.5C22.9967 25.5 21.25 23.7533 21.25 21.25C21.25 18.7467 22.9967 17 25.5 17C28.0033 17 29.75 18.7467 29.75 21.25C29.75 23.7533 28.0033 25.5 25.5 25.5Z" fill="#686CFF"/>
</svg>
