<svg width="38" height="38" viewBox="0 0 38 38" fill="none" xmlns="http://www.w3.org/2000/svg">
<rect width="38" height="38" rx="5" fill="#D0D1FF"/>
<path d="M27 11H11C9.897 11 9 11.897 9 13V25C9 26.103 9.897 27 11 27H27C28.103 27 29 26.103 29 25V13C29 11.897 28.103 11 27 11ZM19.5 23C18.119 23 17 21.881 17 20.5C17 19.119 18.119 18 19.5 18C20.065 18 20.581 18.194 21 18.512C20.396 18.968 20 19.685 20 20.5C20 21.315 20.396 22.032 21 22.488C20.581 22.806 20.065 23 19.5 23ZM23.5 23C22.119 23 21 21.881 21 20.5C21 19.119 22.119 18 23.5 18C24.881 18 26 19.119 26 20.5C26 21.881 24.881 23 23.5 23Z" fill="#686CFF"/>
</svg>
