<svg width="38" height="38" viewBox="0 0 38 38" fill="none" xmlns="http://www.w3.org/2000/svg">
<rect width="38" height="38" rx="5" fill="#D0D1FF"/>
<path d="M12 14H14V24H12V14ZM21 14H22V24H21V14ZM17 14H20V24H17V14ZM15 14H16V24H15V14ZM23 14H26V24H23V14Z" fill="#686CFF"/>
<path d="M11 12H15V10H11C9.897 10 9 10.897 9 12V16H11V12ZM11 28H15V26H11V22H9V26C9 27.103 9.897 28 11 28ZM27 10H23V12H27V16H29V12C29 10.897 28.103 10 27 10ZM27 26H23V28H27C28.103 28 29 27.103 29 26V22H27V26Z" fill="#686CFF"/>
</svg>
