<svg width="38" height="38" viewBox="0 0 38 38" fill="none" xmlns="http://www.w3.org/2000/svg">
<rect width="38" height="38" rx="5" fill="#D0D1FF"/>
<path d="M28 12H27H25H13H11H10C9.447 12 9 12.447 9 13V14V15.938V17H9.893C10.889 17 11.813 17.681 11.973 18.664C12.177 19.917 11.215 21 10 21H9V22.062V24V25C9 25.553 9.447 26 10 26H11H13H25H27H28C28.553 26 29 25.553 29 25V24V22.062V21C29 21 28.553 21 28 21C26.785 21 25.823 19.917 26.027 18.664C26.187 17.681 27.111 17 28.107 17H29V15.938V14V13C29 12.447 28.553 12 28 12ZM18 24H16V22H18V24ZM18 20H16V18H18V20ZM18 16H16V14H18V16Z" fill="#686CFF"/>
</svg>
