<svg width="38" height="38" viewBox="0 0 38 38" fill="none" xmlns="http://www.w3.org/2000/svg">
<rect width="38" height="38" rx="5" fill="#C0F5B0"/>
<path d="M28 17.0004H14V14.1134C14 13.1164 14.678 12.1904 15.661 12.0284C16.912 11.8214 18 12.7864 18 14.0004H20C20 11.6634 17.986 9.78842 15.602 10.0204C13.523 10.2224 12 12.0894 12 14.1784V17.0004H10C9.447 17.0004 9 17.4484 9 18.0004V20.0004C9 22.6064 10.674 24.8234 13 25.6504V29.0004H15V26.0004H23V29.0004H25V25.6504C27.326 24.8234 29 22.6064 29 20.0004V18.0004C29 17.4484 28.553 17.0004 28 17.0004Z" fill="#35E000"/>
</svg>
