<svg width="289" height="292" viewBox="0 0 289 292" fill="none" xmlns="http://www.w3.org/2000/svg">
<rect width="289" height="292" rx="10" fill="#C0F5B0"/>
<path d="M204.125 132.917H116.042V114.753C116.042 108.48 120.307 102.654 126.492 101.635C134.363 100.333 141.208 106.404 141.208 114.042H153.792C153.792 99.3384 141.12 87.5416 126.121 89.0012C113.041 90.2722 103.458 102.019 103.458 115.162V132.917H90.875C87.3957 132.917 84.5834 135.736 84.5834 139.209V151.792C84.5834 168.188 95.1156 182.137 109.75 187.34V208.417H122.333V189.542H172.667V208.417H185.25V187.34C199.884 182.137 210.417 168.188 210.417 151.792V139.209C210.417 135.736 207.604 132.917 204.125 132.917Z" fill="#35E000"/>
</svg>
